PathFileType	4	(X/Y/Z)	C:/Users/opensim2020/Desktop/walking_exp_matlab/subject06_walking17_straight_04.trc																																																																																																																																					
DataRate	CameraRate	NumFrames	NumMarkers	Units	OrigDataRate	OrigDataStartFrame	OrigNumFrames																																																																																																																																	
100	100	7	45	mm	100	4286	318																																																																																																																																	
Frame#	Time	LFHD			RFHD			LBHD			RBHD			C7			T10			CLAV			STRN			RBAK			LSHO			LUPA			LELB			LFRM			LWRA			LWRB			LFIN			RSHO			RUPA			RELB			RFRM			RWRA			RWRB			RFIN			LASI			RASI			LPSI			RPSI			LTHI			LKNE			LTIB			LANK			LHEE			LTOE			RTHI			RKNE			RTIB			RANK			RHEE			RTOE			*39			*40			*41			*42			*43			*44		
		X1	Y1	Z1	X2	Y2	Z2	X3	Y3	Z3	X4	Y4	Z4	X5	Y5	Z5	X6	Y6	Z6	X7	Y7	Z7	X8	Y8	Z8	X9	Y9	Z9	X10	Y10	Z10	X11	Y11	Z11	X12	Y12	Z12	X13	Y13	Z13	X14	Y14	Z14	X15	Y15	Z15	X16	Y16	Z16	X17	Y17	Z17	X18	Y18	Z18	X19	Y19	Z19	X20	Y20	Z20	X21	Y21	Z21	X22	Y22	Z22	X23	Y23	Z23	X24	Y24	Z24	X25	Y25	Z25	X26	Y26	Z26	X27	Y27	Z27	X28	Y28	Z28	X29	Y29	Z29	X30	Y30	Z30	X31	Y31	Z31	X32	Y32	Z32	X33	Y33	Z33	X34	Y34	Z34	X35	Y35	Z35	X36	Y36	Z36	X37	Y37	Z37	X38	Y38	Z38	X39	Y39	Z39	X40	Y40	Z40	X41	Y41	Z41	X42	Y42	Z42	X43	Y43	Z43	X44	Y44	Z44	X45	Y45	Z45
																																																																																																																																								
1	0	-1388.42749	1672.1842	-1494.01965	-1386.93799	1655.12781	-1363.06775	-1524.50525	1625.14893	-1493.98389	-1521.59521	1613.73547	-1365.90137	-1531.17432	1463.28479	-1431.92896	-1573.51685	1136.40234	-1412.86902	-1425.01697	1382.76929	-1444.77588	-1392.91943	1205.80811	-1452.59009	-1595.54016	1297.07227	-1336.82068	-1501.89441	1412.84534	-1598.28162	-1525.22107	1209.94971	-1666.27356	-1534.39124	1097.95972	-1677.35193	-1503.20447	951.06445	-1701.12683	-1428.30383	843.04993	-1664.67957	-1491.44946	831.06525	-1694.27124	-1441.73096	754.51886	-1702.18555	-1442.39795	1419.98218	-1279.60657	-1472.37866	1224.27979	-1181.30896	-1462.75562	1102.3241	-1168.27271	-1435.50671	984.93231	-1156.38916	-1369.2561	853.41913	-1202.34436	-1415.2196	849.19788	-1152.6626	-1370.34644	778.09125	-1158.95056	-1411.01904	970.49536	-1539.79712	-1389.91992	975.50116	-1321.69995	-1567.19775	1001.30737	-1498.43848	-1543.04944	1006.64117	-1330.59204	-1421.30396	661.104	-1590.04907	-1375.81824	506.24121	-1562.70032	-1488.89392	283.71552	-1563.32837	-1549.3833	120.89156	-1531.83203	-1586.06506	112.44184	-1480.80298	-1424.40051	54.32748	-1554.00928	-1454.56677	638.70795	-1275.05774	-1459.44958	514.32526	-1305.22949	-1524.14404	255.7794	-1320.21985	-1556.14832	73.26247	-1373.20081	-1600.25867	49.36765	-1416.22888	-1408.33496	43.94156	-1385.86926	-1485.328	1712.95886	-1430.8783	NaN	NaN	NaN	NaN	NaN	NaN	NaN	NaN	NaN	NaN	NaN	NaN	NaN	NaN	NaN
2	0.01	-1383.11646	1671.85474	-1494.48511	-1381.65369	1654.8833	-1363.55823	-1519.10132	1624.63123	-1494.41003	-1516.21582	1613.34412	-1366.37708	-1525.66357	1462.9541	-1432.21082	-1568.21179	1136.07751	-1413.25208	-1419.4856	1382.39587	-1445.05371	-1387.45776	1205.42737	-1452.60864	-1590.12756	1296.8905	-1336.88733	-1496.43604	1412.36218	-1598.54346	-1520.94788	1209.66797	-1666.55115	-1530.99097	1097.76978	-1677.74377	-1501.2887	950.37848	-1701.23462	-1427.84155	841.505	-1664.90735	-1491.13538	830.38788	-1694.63	-1442.19385	752.88037	-1702.17102	-1436.776	1419.74243	-1279.73364	-1466.28381	1223.75317	-1181.73022	-1456.77246	1101.77222	-1168.92664	-1429.55127	984.38849	-1157.21826	-1363.40295	852.93292	-1203.6853	-1409.28271	848.6416	-1153.71899	-1364.42871	777.45215	-1160.047	-1404.98242	970.18518	-1539.6748	-1385.1156	975.0874	-1321.44751	-1561.43848	1000.88928	-1499.07886	-1538.26587	1006.11688	-1331.07263	-1413.19531	661.82672	-1591.2644	-1367.66675	506.63129	-1562.84253	-1473.1001	279.91522	-1565.09045	-1527.78162	115.04617	-1534.52698	-1564.41272	104.93006	-1483.98376	-1400.12354	53.14189	-1555.17285	-1450.69226	638.24127	-1275.31018	-1455.71033	513.90503	-1305.48621	-1522.15759	255.60829	-1320.46814	-1555.82031	73.28002	-1373.31873	-1600.11096	49.67179	-1416.23413	-1407.88855	43.58447	-1386.11206	-1480.06128	1712.57886	-1431.42639	NaN	NaN	NaN	NaN	NaN	NaN	NaN	NaN	NaN	NaN	NaN	NaN	NaN	NaN	NaN
3	0.02	-1377.74426	1671.4458	-1494.94556	-1376.28711	1654.61975	-1363.93433	-1513.67249	1624.07434	-1494.85059	-1510.83154	1612.92358	-1366.83875	-1520.20959	1462.59631	-1432.52795	-1562.86414	1135.66956	-1413.61169	-1413.97839	1381.98376	-1445.23303	-1381.99243	1204.97131	-1452.59631	-1584.71362	1296.68835	-1337.07935	-1490.99719	1411.88672	-1598.84326	-1516.5957	1209.33948	-1666.89795	-1527.46521	1097.55212	-1678.07141	-1499.10999	949.49237	-1701.12976	-1427.38721	840.10455	-1665.07239	-1490.67407	829.71045	-1694.9939	-1442.75793	751.74854	-1702.38232	-1431.25061	1419.34424	-1280.02502	-1460.34558	1223.20471	-1182.02563	-1450.79614	1101.19141	-1169.67346	-1423.6355	983.75861	-1158.17188	-1357.56506	852.24756	-1204.90747	-1403.33765	848.03619	-1154.97034	-1358.72937	776.78674	-1161.50122	-1398.94019	969.94507	-1539.47717	-1380.26025	974.63324	-1321.10522	-1555.698	1000.50787	-1499.69458	-1533.41711	1005.58508	-1331.53821	-1406.43457	661.86633	-1591.6897	-1359.78113	506.86118	-1563.15771	-1457.14148	276.2764	-1566.79248	-1505.44617	109.13295	-1536.67896	-1542.46436	97.81566	-1486.41125	-1375.46826	51.69742	-1555.40259	-1446.67053	637.60352	-1275.63904	-1452.1886	513.32697	-1305.57813	-1520.41394	255.46851	-1320.67126	-1555.54419	73.3346	-1373.41589	-1600.02332	49.79714	-1416.29749	-1407.64221	43.20695	-1386.0741	-1474.71411	1712.10095	-1431.9447	NaN	NaN	NaN	NaN	NaN	NaN	NaN	NaN	NaN	NaN	NaN	NaN	NaN	NaN	NaN
4	0.03	-1372.31555	1671.03174	-1495.37683	-1370.90991	1654.33997	-1364.40051	-1508.20752	1623.51709	-1495.29175	-1505.3291	1612.49915	-1367.21655	-1514.59985	1462.1875	-1432.75977	-1557.42798	1135.2876	-1413.94312	-1408.43848	1381.5863	-1445.43933	-1376.48071	1204.54431	-1452.62158	-1579.25415	1296.45349	-1337.19983	-1485.34094	1411.34668	-1599.09094	-1512.21387	1209.00391	-1667.22119	-1523.79932	1097.2926	-1678.33508	-1497.21704	949.22675	-1701.66846	-1427.4342	838.34796	-1664.40552	-1490.14063	829.11798	-1695.25964	-1443.17041	750.49908	-1702.43152	-1425.69617	1418.99695	-1280.23242	-1454.07581	1222.57739	-1182.56018	-1444.82458	1100.53857	-1170.45007	-1417.63623	983.05542	-1159.20325	-1351.98291	851.41547	-1206.28687	-1397.46802	847.33191	-1156.15735	-1352.89221	776.09894	-1162.91565	-1392.86047	969.74615	-1539.32727	-1375.328	974.11359	-1320.86609	-1549.93164	1000.1756	-1500.30518	-1528.42151	1005.0451	-1331.96155	-1400.0061	661.6593	-1592.23291	-1352.21313	507.091	-1563.5697	-1441.30811	272.96295	-1568.745	-1483.1178	103.84506	-1538.7915	-1520.46484	91.37903	-1489.02295	-1351.01953	50.94854	-1555.47083	-1442.76428	637.08563	-1275.91614	-1448.4364	512.63483	-1305.61145	-1518.70593	255.36224	-1320.87317	-1555.32361	73.43701	-1373.47339	-1599.95569	50.02074	-1416.3623	-1407.69897	42.93488	-1385.80273	-1469.42236	1711.72766	-1432.49182	NaN	NaN	NaN	NaN	NaN	NaN	NaN	NaN	NaN	NaN	NaN	NaN	NaN	NaN	NaN
5	0.04	-1366.90344	1670.61548	-1495.81726	-1365.4834	1654.06189	-1364.79846	-1502.7356	1622.95728	-1495.74817	-1499.89905	1612.02332	-1367.5907	-1509.09827	1461.79663	-1433.01709	-1552.01636	1134.86646	-1414.27942	-1402.84485	1381.21594	-1445.73901	-1370.92859	1204.11096	-1452.69604	-1574.58716	1296.66394	-1338.48767	-1479.76196	1410.82471	-1599.36145	-1507.61853	1208.70032	-1667.53015	-1520.04834	1097.10767	-1678.65564	-1495.03296	948.69604	-1701.86243	-1426.86267	836.96057	-1664.25269	-1489.50684	828.52954	-1695.5332	-1443.37756	749.0257	-1702.15454	-1420.03784	1418.64258	-1280.46484	-1447.92395	1221.98975	-1183.10364	-1438.86707	1099.82434	-1171.29102	-1411.74939	982.34064	-1160.25024	-1346.29883	850.70056	-1207.76892	-1391.60059	846.63971	-1157.57666	-1347.21594	775.31354	-1164.51624	-1386.7782	969.50482	-1539.15308	-1370.35547	973.6059	-1320.58838	-1544.10474	999.81012	-1500.79443	-1523.39832	1004.45026	-1332.29395	-1393.85986	661.51355	-1592.86023	-1344.84802	507.19818	-1564.06775	-1425.09521	269.55368	-1570.22229	-1460.58789	98.91298	-1540.60181	-1498.30322	85.46786	-1491.3916	-1326.54456	50.31934	-1554.85559	-1438.84351	636.5661	-1276.23535	-1444.8075	512.03577	-1305.98315	-1517.10852	255.22562	-1320.9696	-1555.36938	73.49134	-1373.46204	-1599.8739	50.33569	-1416.46765	-1407.13525	42.36504	-1385.90979	-1464.05005	1711.21887	-1432.9425	NaN	NaN	NaN	NaN	NaN	NaN	NaN	NaN	NaN	NaN	NaN	NaN	NaN	NaN	NaN
6	0.05	-1361.48511	1670.16553	-1496.27039	-1360.01721	1653.69983	-1365.28186	-1497.26172	1622.39966	-1496.20471	-1494.44666	1611.60742	-1368.03564	-1503.50171	1461.37073	-1433.33545	-1546.45386	1134.42419	-1414.60681	-1397.29028	1380.74878	-1445.94458	-1365.31409	1203.63757	-1452.75671	-1568.26428	1295.84534	-1337.57813	-1474.08496	1410.29797	-1599.66345	-1502.99158	1208.3833	-1667.79175	-1516.15186	1096.89771	-1678.94214	-1492.73816	948.20709	-1702.02002	-1426.24207	835.55927	-1663.98303	-1488.70984	828.03729	-1695.81274	-1443.66626	748.05206	-1702.10327	-1414.41284	1418.14453	-1280.76685	-1441.83118	1221.41956	-1183.70203	-1432.80432	1099.13806	-1172.2616	-1405.7821	981.51929	-1161.44202	-1340.44519	850.09882	-1209.38403	-1385.79089	845.92212	-1158.98584	-1341.46838	774.37793	-1166.26538	-1380.64429	969.21985	-1539.02942	-1365.19067	973.00012	-1320.39514	-1538.19336	999.44	-1501.2334	-1518.25598	1003.86139	-1332.67249	-1387.86243	661.2619	-1593.62488	-1337.81372	507.17041	-1564.75818	-1408.60803	266.18082	-1571.32349	-1437.92896	94.46812	-1542.17371	-1476.14172	80.18594	-1493.70862	-1301.92102	49.51155	-1553.53589	-1434.88477	635.91449	-1276.50659	-1441.29211	511.47879	-1306.16003	-1515.36353	255.05193	-1321.20544	-1554.76965	73.57961	-1373.62988	-1599.69714	50.59191	-1416.52295	-1406.8429	41.81482	-1385.53979	-1458.65271	1710.75488	-1433.48743	NaN	NaN	NaN	NaN	NaN	NaN	NaN	NaN	NaN	NaN	NaN	NaN	NaN	NaN	NaN
7	0.06	-1356.01306	1669.69165	-1496.69446	-1354.63831	1653.32727	-1365.63623	-1491.7522	1621.80518	-1496.63196	-1488.93018	1611.11987	-1368.453	-1497.93042	1460.86902	-1433.59473	-1541.00195	1133.96655	-1414.92737	-1391.77502	1380.26648	-1446.14417	-1359.67407	1203.1449	-1452.84717	-1563.33093	1295.89001	-1338.63135	-1468.42102	1409.76868	-1599.89722	-1498.23022	1208.09668	-1668.01392	-1512.18616	1096.69128	-1679.15283	-1490.3158	947.71649	-1702.08801	-1425.50562	834.2359	-1663.6615	-1487.84106	827.50348	-1695.95093	-1443.79968	746.95367	-1701.93286	-1408.71545	1417.7533	-1281.07251	-1435.80029	1220.74072	-1184.32483	-1426.76746	1098.44763	-1173.3324	-1399.8324	980.75146	-1162.70789	-1334.93188	849.1261	-1210.93848	-1379.91736	845.1922	-1160.54651	-1335.7948	773.57465	-1167.94006	-1374.53223	968.85315	-1538.91907	-1360.03821	972.39825	-1320.27246	-1532.2854	999.04425	-1501.70801	-1513.05176	1003.23669	-1333.02527	-1382.07922	661.02057	-1594.36206	-1331.06177	507.04688	-1565.52588	-1392.46033	263.21927	-1572.64331	-1415.22803	90.60611	-1543.61096	-1453.42139	75.17409	-1495.52124	-1277.43762	49.16162	-1551.83826	-1430.96619	635.36609	-1276.86658	-1437.60938	510.82944	-1306.38867	-1513.65137	254.84775	-1321.3855	-1554.79932	73.64765	-1373.63	-1599.52295	50.90649	-1416.59644	-1406.49609	41.47137	-1385.33618	-1453.24316	1710.21875	-1433.96106	NaN	NaN	NaN	NaN	NaN	NaN	NaN	NaN	NaN	NaN	NaN	NaN	NaN	NaN	NaN
